<svg xmlns="http://www.w3.org/2000/svg" version="1.1" width="3300" height="2000"><g id="Notes"><style>
    text {
      font-family: monospace;
      text-anchor: middle;
    }
    text.emphasis {
      font-weight:bold;
    }
    text.lanchor {
      text-anchor: start;
    }
  </style><rect height="2200" id="artboard" fill="white" width="3300" x="0" y="0"/><line id="" style="fill:none;stroke:black;stroke-width:0.5;" x1="263" x2="3036" y1="292" y2="292"/><text class="lanchor emphasis" transform="matrix(1 0 0 1 263 322)">Weight/Scale Variations</text><text transform="matrix(1 0 0 1 559.711 322)">Ultralight</text><text transform="matrix(1 0 0 1 856.422 322)">Thin</text><text transform="matrix(1 0 0 1 1153.13 322)">Light</text><text transform="matrix(1 0 0 1 1449.84 322)">Regular</text><text transform="matrix(1 0 0 1 1746.56 322)">Medium</text><text transform="matrix(1 0 0 1 2043.27 322)">Semibold</text><text transform="matrix(1 0 0 1 2339.98 322)">Bold</text><text transform="matrix(1 0 0 1 2636.69 322)">Heavy</text><text transform="matrix(1 0 0 1 2933.4 322)">Black</text><text id="template-version" style="text-anchor: end;" transform="matrix(1 0 0 1 3036 1933)">Template v.1.0</text><text class="lanchor" transform="matrix(1 0 0 1 263 726)">Small</text><text class="lanchor" transform="matrix(1 0 0 1 263 1156)">Medium</text><text class="lanchor" transform="matrix(1 0 0 1 263 1586)">Large</text></g><g id="Guides"><g id="H-reference" style="fill:#27AAE1;stroke:none;" transform="matrix(1 0 0 1 339 696)"><path d="M 54.9316 0 L 57.666 0 L 30.5664 -70.459 L 28.0762 -70.459 L 0.976562 0 L 3.66211 0 L 12.9395 -24.4629 L 45.7031 -24.4629 Z M 29.1992 -67.0898 L 29.4434 -67.0898 L 44.8242 -26.709 L 13.8184 -26.709 Z"/></g><line id="Baseline-S" style="fill:none;stroke:#27AAE1;opacity:1;stroke-width:0.577;" x1="263" x2="3036" y1="696" y2="696"/><line id="Capline-S" style="fill:none;stroke:#27AAE1;opacity:1;stroke-width:0.577;" x1="263" x2="3036" y1="625.541" y2="625.541"/><g id="H-reference" style="fill:#27AAE1;stroke:none;" transform="matrix(1 0 0 1 339 1126)"><path d="M 54.9316 0 L 57.666 0 L 30.5664 -70.459 L 28.0762 -70.459 L 0.976562 0 L 3.66211 0 L 12.9395 -24.4629 L 45.7031 -24.4629 Z M 29.1992 -67.0898 L 29.4434 -67.0898 L 44.8242 -26.709 L 13.8184 -26.709 Z"/></g><line id="Baseline-M" style="fill:none;stroke:#27AAE1;opacity:1;stroke-width:0.577;" x1="263" x2="3036" y1="1126" y2="1126"/><line id="Capline-M" style="fill:none;stroke:#27AAE1;opacity:1;stroke-width:0.577;" x1="263" x2="3036" y1="1055.54" y2="1055.54"/><g id="H-reference" style="fill:#27AAE1;stroke:none;" transform="matrix(1 0 0 1 339 1556)"><path d="M 54.9316 0 L 57.666 0 L 30.5664 -70.459 L 28.0762 -70.459 L 0.976562 0 L 3.66211 0 L 12.9395 -24.4629 L 45.7031 -24.4629 Z M 29.1992 -67.0898 L 29.4434 -67.0898 L 44.8242 -26.709 L 13.8184 -26.709 Z"/></g><line id="Baseline-L" style="fill:none;stroke:#27AAE1;opacity:1;stroke-width:0.577;" x1="263" x2="3036" y1="1556" y2="1556"/><line id="Capline-L" style="fill:none;stroke:#27AAE1;opacity:1;stroke-width:0.577;" x1="263" x2="3036" y1="1485.54" y2="1485.54"/><rect height="119.336" id="left-margin" style="fill:darkred;stroke:none;opacity:0.4;" width="12.4512" x="1394.06" y="1030.79"/><rect height="119.336" id="right-margin" style="fill:darkgreen;stroke:none;opacity:0.4;" width="12.4512" x="1502.5112" y="1030.79"/><rect x="1406.5112" y="1045" width="96" height="96" fill="none" stroke="blue" stroke-dasharray="5"/><rect x="1394.06" y="1030.79" width="120.9024" height="119.336" fill="none" stroke="blue"/></g><g id="Symbols"><g id="Bold-L" transform="matrix(1 0 0 1 2266 1556)"><path d="M54.35302125 5.881977500000005  77.405805 -7.8489437499999894  100.45875000000001 6.050000000000011  94.17 -19.91124999999998  114.4875 -37.64874999999998  87.72 -39.906249999999986  77.4 -64.41624999999999  67.08 -39.906249999999986  40.3125 -37.80999999999999  60.69014625 -20.22971874999999  54.35302125 5.881977500000005 Z M31.605 37.65500000000003  43.698750000000004 -14.589999999999975  3.06375 -49.74249999999998  56.53425000000001 -54.22412124999998  77.4 -103.59999999999998  98.26575 -54.22412124999998  151.73625 -49.74249999999998  111.10125000000001 -14.589999999999975  123.35625 37.65500000000003  77.4 9.75875000000002  31.605 37.65500000000003 Z"/></g><g id="Semibold-L" transform="matrix(1 0 0 1 1970.27 1556)"><path d="M53.36649375 7.287110000000013  77.40338625000001 -7.0641399999999805  101.44027875 7.452068750000024  94.94109750000001 -19.700979999999987  116.09983875 -38.13943374999998  88.21068375 -40.53722124999999  77.4 -66.16887624999998  66.58931625 -40.60736499999997  38.70016125 -38.30068374999999  59.892765000000004 -19.95107874999998  53.36649375 7.287110000000013 Z M34.198867500000006 34.00913750000001  45.591502500000004 -15.220971249999991  7.3401000000000005 -48.34043124999998  57.75410625000001 -52.626294999999985  77.4 -99.11337999999998  97.04589375 -52.626294999999985  147.4599 -48.34043124999998  109.2084975 -15.220971249999991  120.69223875000002 34.00913750000001  77.4 7.7958537500000205  34.198867500000006 34.00913750000001 Z"/></g><g id="Medium-L" transform="matrix(1 0 0 1 1674.31 1556)"><path d="M52.62635625 8.34087875000003  77.40145125000001 -6.475416249999981  102.17638500000001 8.503741250000019  95.51966250000001 -19.543116249999983  117.309375 -38.50756749999999  88.5788175 -41.010489999999976  77.4 -67.48354749999999  66.2211825 -41.133201249999985  37.490625 -38.66881749999999  59.294850000000004 -19.742098749999982  52.62635625 8.34087875000003 Z M36.14451 31.275143750000012  47.011308750000005 -15.69423999999998  10.54784625 -47.288758749999985  58.66903875 -51.427723749999984  77.4 -95.74793125  96.13096125 -51.427723749999984  144.25215375 -47.288758749999985  107.78869125 -15.69423999999998  118.69402875 31.275143750000012  77.4 6.323480000000018  36.14451 31.275143750000012 Z"/></g><g id="Regular-L" transform="matrix(1 0 0 1 1378.56 1556)"><path d="M52.08375 9.11375000000001  77.4 -6.043749999999989  102.71625 9.275000000000006  95.94375000000001 -19.42749999999998  118.19625 -38.77749999999999  88.84875 -41.35749999999999  77.4 -68.44749999999999  65.95125 -41.51874999999998  36.60375 -38.938749999999985  58.85625 -19.588749999999976  52.08375 9.11375000000001 Z M37.57125 29.27000000000001  48.0525 -16.041249999999977  12.9 -46.517499999999984  59.34 -50.548749999999984  77.4 -93.27999999999999  95.46000000000001 -50.548749999999984  141.9 -46.517499999999984  106.7475 -16.041249999999977  117.22875 29.27000000000001  77.4 5.243750000000006  37.57125 29.27000000000001 Z"/></g><g id="Light-L" transform="matrix(1 0 0 1 1082.77 1556)"><path d="M53.4482475 7.31500625000001  77.4 -7.0981637499999835  101.3517525 7.476256250000034  95.0133375 -19.799664999999976  116.0874225 -38.09525124999999  88.2905025 -40.55124999999998  77.4 -66.21467124999998  66.5094975 -40.71249999999998  38.7125775 -38.256501249999985  59.7866625 -19.89883374999998  53.4482475 7.31500625000001 Z M42.4090725 22.571352500000017  51.649826250000004 -17.219664999999978  20.7770625 -43.974587499999984  61.510908750000006 -47.50950999999998  77.4 -85.03077249999998  93.28909125000001 -47.50950999999998  134.0229375 -43.974587499999984  103.15017375000001 -17.219664999999978  112.3909275 22.571352500000017  77.4 1.4603412500000275  42.4090725 22.571352500000017 Z"/></g><g id="Thin-L" transform="matrix(1 0 0 1 787.282 1556)"><path d="M54.81258375 5.5165850000000205  77.4 -8.152416249999987  99.98741625 5.677835000000016  94.0832475 -20.17166874999998  113.97891750000001 -37.41316374999998  87.73241625 -39.744999999999976  77.4 -63.98216499999998  67.06758375 -39.906249999999986  40.8210825 -37.57441374999998  60.716752500000005 -20.208917499999984  54.81258375 5.5165850000000205 Z M47.24625 15.873995000000008  55.246668750000005 -18.397918749999988  28.652835000000003 -41.43199749999998  63.68133375 -44.47091499999998  77.4 -76.78299624999998  91.11866625 -44.47091499999998  126.147165 -41.43199749999998  99.55333125 -18.397918749999988  107.55375000000001 15.873995000000008  77.4 -2.3225837499999784  47.24625 15.873995000000008 Z"/></g><g id="Ultralight-L" transform="matrix(1 0 0 1 491.205 1556)"><path d="M55.63125 4.437500000000028  77.4 -8.784999999999982  99.16875 4.598750000000024  93.525 -20.394999999999982  112.71375 -37.00374999999998  87.39750000000001 -39.26124999999999  77.4 -62.642499999999984  67.4025 -39.422499999999985  42.08625 -37.16499999999998  61.275 -20.394999999999982  55.63125 4.437500000000028 Z M50.14875 11.855000000000018  57.405 -19.104999999999976  33.378750000000004 -39.906249999999986  64.98375 -42.64749999999998  77.4 -71.83374999999998  89.81625 -42.64749999999998  121.42125 -39.906249999999986  97.395 -19.104999999999976  104.65125 11.855000000000018  77.4 -4.592499999999987  50.14875 11.855000000000018 Z"/></g><g id="Bold-M" transform="matrix(1 0 0 1 2281.8 1126)"><path d="M46.625 -9.47999999999999  60.0 -17.47999999999999  73.375 -9.35499999999999  69.75 -24.47999999999999  81.625 -34.72999999999999  66.125 -36.10499999999999  60.0 -50.47999999999999  53.875 -36.10499999999999  38.375 -34.85499999999999  50.25 -24.60499999999999  46.625 -9.47999999999999 Z M22.875 23.39500000000001  32.75 -18.85499999999999  -0.125 -47.35499999999999  43.125 -50.97999999999999  60.0 -90.85499999999999  76.875 -50.97999999999999  120.125 -47.35499999999999  87.25 -18.85499999999999  97.125 23.39500000000001  60.0 0.8950000000000102  22.875 23.39500000000001 Z"/></g><g id="Semibold-M" transform="matrix(1 0 0 1 1985.97 1126)"><path d="M45.5925 -8.012749999999983  60.0 -16.664874999999995  74.4075 -7.887749999999983  70.565125 -24.262624999999986  83.309625 -35.273499999999984  66.614125 -36.75712499999999  60.0 -52.27337499999999  53.385875 -36.811499999999995  36.690375 -35.398499999999984  49.434875 -24.333249999999992  45.5925 -8.012749999999983 Z M25.59225 19.64500000000001  34.706375 -19.507124999999988  4.276875 -45.88774999999999  44.374875 -49.29537499999999  60.0 -86.23575  75.625125 -49.29537499999999  115.723125 -45.88774999999999  85.293625 -19.507124999999988  94.40775 19.64500000000001  60.0 -1.1701249999999845  25.59225 19.64500000000001 Z"/></g><g id="Medium-M" transform="matrix(1 0 0 1 1689.91 1126)"><path d="M44.818 -6.912124999999989  60.0 -16.05337499999999  75.182 -6.787124999999989  71.176625 -24.09962499999999  84.573375 -35.681124999999994  66.981 -37.24624999999999  60.0 -53.61862499999999  53.019 -37.341374999999985  35.426625 -35.806124999999994  48.823375 -24.129499999999993  44.818 -6.912124999999989 Z M27.630375 16.83250000000001  36.173875 -19.99624999999999  7.57875 -44.78712499999999  45.3125 -48.03162499999999  60.0 -82.77087499999999  74.6875 -48.03162499999999  112.42125 -44.78712499999999  83.826125 -19.99624999999999  92.369625 16.83250000000001  60.0 -2.719124999999991  27.630375 16.83250000000001 Z"/></g><g id="Regular-M" transform="matrix(1 0 0 1 1394.06 1126)"><path d="M44.25 -6.10499999999999  60.0 -15.60499999999999  75.75 -5.97999999999999  71.625 -23.97999999999999  85.5 -35.97999999999999  67.25 -37.60499999999999  60.0 -54.60499999999999  52.75 -37.72999999999999  34.5 -36.10499999999999  48.375 -23.97999999999999  44.25 -6.10499999999999 Z M29.125 14.77000000000001  37.25 -20.35499999999999  10.0 -43.97999999999999  46.0 -47.10499999999999  60.0 -80.22999999999999  74.0 -47.10499999999999  110.0 -43.97999999999999  82.75 -20.35499999999999  90.875 14.77000000000001  60.0 -3.8549999999999898  29.125 14.77000000000001 Z"/></g><g id="Light-M" transform="matrix(1 0 0 1 1098.18 1126)"><path d="M44.25 -6.10499999999999  60.0 -15.60499999999999  75.75 -5.97999999999999  71.625 -23.97999999999999  85.5 -35.97999999999999  67.25 -37.60499999999999  60.0 -54.60499999999999  52.75 -37.72999999999999  34.5 -36.10499999999999  48.375 -23.97999999999999  44.25 -6.10499999999999 Z M32.87525 9.577250000000006  40.038625 -21.26849999999999  16.10625 -42.00874999999999  47.682875 -44.74899999999999  60.0 -73.83524999999999  72.317125 -44.74899999999999  103.89375 -42.00874999999999  79.961375 -21.26849999999999  87.12475 9.577250000000006  60.0 -6.7878749999999854  32.87525 9.577250000000006 Z"/></g><g id="Thin-M" transform="matrix(1 0 0 1 802.565 1126)"><path d="M44.25 -6.10499999999999  60.0 -15.60499999999999  75.75 -5.97999999999999  71.625 -23.97999999999999  85.5 -35.97999999999999  67.25 -37.60499999999999  60.0 -54.60499999999999  52.75 -37.72999999999999  34.5 -36.10499999999999  48.375 -23.97999999999999  44.25 -6.10499999999999 Z M36.625 4.3855000000000075  42.826875 -22.18187499999999  22.2115 -40.03774999999999  49.365375 -42.39349999999999  60.0 -67.44162499999999  70.634625 -42.39349999999999  97.7885 -40.03774999999999  77.173125 -22.18187499999999  83.375 4.3855000000000075  60.0 -9.72037499999999  36.625 4.3855000000000075 Z"/></g><g id="Ultralight-M" transform="matrix(1 0 0 1 506.415 1126)"><path d="M44.25 -6.10499999999999  60.0 -15.60499999999999  75.75 -5.97999999999999  71.625 -23.97999999999999  85.5 -35.97999999999999  67.25 -37.60499999999999  60.0 -54.60499999999999  52.75 -37.72999999999999  34.5 -36.10499999999999  48.375 -23.97999999999999  44.25 -6.10499999999999 Z M38.875 1.2700000000000102  44.5 -22.72999999999999  25.875 -38.85499999999999  50.375 -40.97999999999999  60.0 -63.60499999999999  69.625 -40.97999999999999  94.125 -38.85499999999999  75.5 -22.72999999999999  81.125 1.2700000000000102  60.0 -11.47999999999999  38.875 1.2700000000000102 Z"/></g><g id="Bold-S" transform="matrix(1 0 0 1 2294.23 696)"><path d="M36.589875 -14.715999999999994  47.34 -21.02799999999999  58.188750000000006 -14.715999999999994  55.230000000000004 -26.649625  64.59937500000001 -34.63824999999999  52.27125 -35.723124999999996  47.34 -47.163624999999996  42.408750000000005 -35.6245  30.080625 -34.63824999999999  39.548625 -26.74825  36.589875 -14.715999999999994 Z M19.034625000000002 9.447125000000014  26.62875 -22.408749999999998  1.479375 -43.90899999999999  34.420125 -46.6705  47.34 -76.751125  60.259875 -46.57187499999999  93.200625 -43.90899999999999  68.05125 -22.408749999999998  75.645375 9.447125000000014  47.34 -7.5163749999999965  19.034625000000002 9.447125000000014 Z"/></g><g id="Semibold-S" transform="matrix(1 0 0 1 1998.1 696)"><path d="M35.7752325 -13.558339749999988  47.34 -20.384866375  59.003392500000004 -13.558339749999988  55.873133625 -26.478116124999985  65.928544125 -35.06707149999999  52.657169625 -36.23765162499999  47.34 -48.57859787499999  42.022830375 -36.1819285  28.751455875000005 -35.06707149999999  38.905491375 -26.53383925  35.7752325 -13.558339749999988 Z M21.17853525 6.488572250000004  28.172329875000003 -22.923276624999986  4.952454375 -42.75133974999999  35.406276375000004 -45.341330875  47.34 -73.10653675  59.273723625 -45.242705875  89.727545625 -42.75133974999999  66.507670125 -22.923276624999986  73.50146475 6.488572250000004  47.34 -9.145758624999985  21.17853525 6.488572250000004 Z"/></g><g id="Medium-S" transform="matrix(1 0 0 1 1701.85 696)"><path d="M35.164152 -12.68994662499999  47.34 -19.90239287499999  59.614473000000004 -12.68994662499999  56.355607125000006 -26.349509124999997  66.92564287500001 -35.388687624999996  52.946633999999996 -36.62357124999999  47.34 -49.64000012499999  41.733366000000004 -36.59999987499999  27.754357125000002 -35.388687624999996  38.423017875 -26.3730805  35.164152 -12.68994662499999 Z M22.786615875000003 4.269312500000012  29.330187375000005 -23.30919625  7.55763375 -41.882946624999995  36.1460625 -44.344232125  47.34 -70.372750375  58.5339375 -44.24560712499999  87.12236625 -41.882946624999995  65.34981262500001 -23.30919625  71.893384125 4.269312500000012  47.34 -10.367919624999999  22.786615875000003 4.269312500000012 Z"/></g><g id="Regular-S" transform="matrix(1 0 0 1 1405.73 696)"><path d="M34.716 -12.053124999999994  47.34 -19.548624999999987  60.062625000000004 -12.053124999999994  56.709375 -26.255124999999992  67.65675 -35.6245  53.158875 -36.90662499999999  47.34 -50.41824999999999  41.521125000000005 -36.90662499999999  27.02325 -35.6245  38.069250000000004 -26.255124999999992  34.716 -12.053124999999994 Z M23.965875 2.64200000000001  30.17925 -23.592249999999993  9.468 -41.24612499999999  36.688500000000005 -43.613125  47.34 -68.368  57.9915 -43.51449999999999  85.212 -41.24612499999999  64.50075 -23.592249999999993  70.71412500000001 2.64200000000001  47.34 -11.264124999999993  23.965875 2.64200000000001 Z"/></g><g id="Light-S" transform="matrix(1 0 0 1 1109.75 696)"><path d="M34.716 -12.053124999999994  47.34 -19.548624999999987  60.062625000000004 -12.053124999999994  56.709375 -26.255124999999992  67.65675 -35.6245  53.158875 -36.90662499999999  47.34 -50.41824999999999  41.521125000000005 -36.90662499999999  27.02325 -35.6245  38.069250000000004 -26.255124999999992  34.716 -12.053124999999994 Z M26.924822250000002 -1.455079749999996  32.379475125000006 -24.3130015  14.28583125 -39.690808749999995  38.016288375 -41.75424099999999  47.34 -63.32254225  56.663711625000005 -41.655615999999995  80.39416875 -39.690808749999995  62.30052487500001 -24.3130015  67.75517775 -1.455079749999996  47.34 -13.578163374999988  26.924822250000002 -1.455079749999996 Z"/></g><g id="Thin-S" transform="matrix(1 0 0 1 814.015 696)"><path d="M34.716 -12.053124999999994  47.34 -19.548624999999987  60.062625000000004 -12.053124999999994  56.709375 -26.255124999999992  67.65675 -35.6245  53.158875 -36.90662499999999  47.34 -50.41824999999999  41.521125000000005 -36.90662499999999  27.02325 -35.6245  38.069250000000004 -26.255124999999992  34.716 -12.053124999999994 Z M29.883375 -5.55137049999999  34.579404375 -25.033654374999998  19.1028735 -38.13568974999999  39.343780875 -39.895751499999996  47.34 -58.27797212499999  55.336219125 -39.79712649999999  75.5771265 -38.13568974999999  60.100595625000004 -25.033654374999998  64.796625 -5.55137049999999  47.34 -15.891905874999992  29.883375 -5.55137049999999 Z"/></g><g id="Ultralight-S" transform="matrix(1 0 0 1 517.792 696)"><path d="M34.716 -12.053124999999994  47.34 -19.548624999999987  60.062625000000004 -12.053124999999994  56.709375 -26.255124999999992  67.65675 -35.6245  53.158875 -36.90662499999999  47.34 -50.41824999999999  41.521125000000005 -36.90662499999999  27.02325 -35.6245  38.069250000000004 -26.255124999999992  34.716 -12.053124999999994 Z M31.658625 -8.009499999999989  35.8995 -25.46612499999999  21.993375 -37.20249999999999  40.140375 -38.780499999999996  47.34 -55.25087499999999  54.539625 -38.68187499999999  72.686625 -37.20249999999999  58.7805 -25.46612499999999  63.021375000000006 -8.009499999999989  47.34 -17.280249999999995  31.658625 -8.009499999999989 Z"/></g></g></svg>